<mxfile host="app.diagrams.net" modified="2021-07-21T10:00:44.837Z" agent="5.0 (Macintosh; Intel Mac OS X 10_15_7) AppleWebKit/605.1.15 (KHTML, like Gecko) Version/14.1.1 Safari/605.1.15" etag="pola7q3IauQpSFmyDIQ-" version="14.9.0" type="github">
  <diagram id="rqKOAFr-XQKQbGZnV9nf" name="第 1 页">
    <mxGraphModel dx="946" dy="563" grid="0" gridSize="10" guides="1" tooltips="1" connect="1" arrows="1" fold="1" page="1" pageScale="1" pageWidth="827" pageHeight="1169" background="#ffffff" math="0" shadow="0">
      <root>
        <mxCell id="0" />
        <mxCell id="1" parent="0" />
        <mxCell id="QlT1cuGir2ei_2_qyT4M-1" value="&lt;div style=&quot;text-align: justify&quot;&gt;&lt;b&gt;path: /&lt;/b&gt;&lt;/div&gt;&lt;div style=&quot;text-align: justify&quot;&gt;&lt;b&gt;indices: ui&lt;/b&gt;&lt;/div&gt;&lt;div style=&quot;text-align: justify&quot;&gt;&lt;b&gt;nType: root&lt;/b&gt;&lt;/div&gt;&lt;div&gt;&lt;div style=&quot;text-align: justify&quot;&gt;&lt;b&gt;wildChild: false&lt;/b&gt;&lt;/div&gt;&lt;/div&gt;" style="rounded=1;whiteSpace=wrap;html=1;align=right;fillColor=#ffe6cc;strokeColor=#d79b00;" vertex="1" parent="1">
          <mxGeometry x="320" y="40" width="120" height="70" as="geometry" />
        </mxCell>
        <mxCell id="QlT1cuGir2ei_2_qyT4M-2" value="&lt;div style=&quot;text-align: justify&quot;&gt;&lt;b&gt;path: user/&lt;/b&gt;&lt;/div&gt;&lt;div style=&quot;text-align: justify&quot;&gt;&lt;b&gt;indices: gd&lt;/b&gt;&lt;/div&gt;&lt;div style=&quot;text-align: justify&quot;&gt;&lt;b&gt;nType: static&lt;/b&gt;&lt;/div&gt;&lt;div&gt;&lt;div style=&quot;text-align: justify&quot;&gt;&lt;b&gt;wildChild: true&lt;/b&gt;&lt;/div&gt;&lt;/div&gt;" style="rounded=1;whiteSpace=wrap;html=1;align=right;fillColor=#f8cecc;strokeColor=#b85450;" vertex="1" parent="1">
          <mxGeometry x="200" y="160" width="120" height="70" as="geometry" />
        </mxCell>
        <mxCell id="QlT1cuGir2ei_2_qyT4M-4" value="&lt;div style=&quot;text-align: justify&quot;&gt;&lt;b&gt;path: in/&lt;/b&gt;&lt;/div&gt;&lt;div style=&quot;text-align: justify&quot;&gt;&lt;b&gt;indices: dt&lt;/b&gt;&lt;/div&gt;&lt;div style=&quot;text-align: justify&quot;&gt;&lt;b&gt;nType: static&lt;/b&gt;&lt;/div&gt;&lt;div&gt;&lt;div style=&quot;text-align: justify&quot;&gt;&lt;b&gt;wildChild: false&lt;/b&gt;&lt;/div&gt;&lt;/div&gt;" style="rounded=1;whiteSpace=wrap;html=1;align=right;fillColor=#f8cecc;strokeColor=#b85450;" vertex="1" parent="1">
          <mxGeometry x="440" y="160" width="110" height="70" as="geometry" />
        </mxCell>
        <mxCell id="QlT1cuGir2ei_2_qyT4M-5" value="&lt;div style=&quot;text-align: justify&quot;&gt;&lt;b&gt;path: get&lt;/b&gt;&lt;/div&gt;&lt;div style=&quot;text-align: justify&quot;&gt;&lt;b&gt;indices:&amp;nbsp;&lt;/b&gt;&lt;/div&gt;&lt;div style=&quot;text-align: justify&quot;&gt;&lt;b&gt;nType: static&lt;/b&gt;&lt;/div&gt;&lt;div&gt;&lt;div style=&quot;text-align: justify&quot;&gt;&lt;b&gt;wildChild: false&lt;/b&gt;&lt;/div&gt;&lt;/div&gt;" style="rounded=1;whiteSpace=wrap;html=1;align=right;fillColor=#d5e8d4;strokeColor=#82b366;" vertex="1" parent="1">
          <mxGeometry y="280" width="120" height="70" as="geometry" />
        </mxCell>
        <mxCell id="QlT1cuGir2ei_2_qyT4M-6" value="&lt;div style=&quot;text-align: justify&quot;&gt;&lt;b&gt;path: del&lt;/b&gt;&lt;/div&gt;&lt;div style=&quot;text-align: justify&quot;&gt;&lt;b&gt;indices:&amp;nbsp;&lt;/b&gt;&lt;/div&gt;&lt;div style=&quot;text-align: justify&quot;&gt;&lt;b&gt;nType: static&lt;/b&gt;&lt;/div&gt;&lt;div&gt;&lt;div style=&quot;text-align: justify&quot;&gt;&lt;b&gt;wildChild: false&lt;/b&gt;&lt;/div&gt;&lt;/div&gt;" style="rounded=1;whiteSpace=wrap;html=1;align=right;fillColor=#d5e8d4;strokeColor=#82b366;" vertex="1" parent="1">
          <mxGeometry x="270" y="280" width="110" height="70" as="geometry" />
        </mxCell>
        <mxCell id="QlT1cuGir2ei_2_qyT4M-7" value="&lt;div style=&quot;text-align: justify&quot;&gt;&lt;b&gt;path: :name&lt;/b&gt;&lt;/div&gt;&lt;div style=&quot;text-align: justify&quot;&gt;&lt;b&gt;indices:&amp;nbsp;&lt;/b&gt;&lt;/div&gt;&lt;div style=&quot;text-align: justify&quot;&gt;&lt;b&gt;nType: param&lt;/b&gt;&lt;/div&gt;&lt;div&gt;&lt;div style=&quot;text-align: justify&quot;&gt;&lt;b&gt;wildChild: false&lt;/b&gt;&lt;/div&gt;&lt;/div&gt;" style="rounded=1;whiteSpace=wrap;html=1;align=right;fillColor=#d5e8d4;strokeColor=#82b366;" vertex="1" parent="1">
          <mxGeometry x="140" y="280" width="110" height="70" as="geometry" />
        </mxCell>
        <mxCell id="QlT1cuGir2ei_2_qyT4M-8" value="&lt;div style=&quot;text-align: justify&quot;&gt;&lt;b&gt;path: dex&lt;/b&gt;&lt;/div&gt;&lt;div style=&quot;text-align: justify&quot;&gt;&lt;b&gt;indices:&amp;nbsp;&lt;/b&gt;&lt;/div&gt;&lt;div style=&quot;text-align: justify&quot;&gt;&lt;b&gt;nType: static&lt;/b&gt;&lt;/div&gt;&lt;div&gt;&lt;div style=&quot;text-align: justify&quot;&gt;&lt;b&gt;wildChild: false&lt;/b&gt;&lt;/div&gt;&lt;/div&gt;" style="rounded=1;whiteSpace=wrap;html=1;align=right;fillColor=#e1d5e7;strokeColor=#9673a6;" vertex="1" parent="1">
          <mxGeometry x="414" y="280" width="110" height="70" as="geometry" />
        </mxCell>
        <mxCell id="QlT1cuGir2ei_2_qyT4M-9" value="&lt;div style=&quot;text-align: justify&quot;&gt;&lt;b&gt;path: ter&lt;/b&gt;&lt;/div&gt;&lt;div style=&quot;text-align: justify&quot;&gt;&lt;b&gt;indices:&amp;nbsp;&lt;/b&gt;&lt;/div&gt;&lt;div style=&quot;text-align: justify&quot;&gt;&lt;b&gt;nType: static&lt;/b&gt;&lt;/div&gt;&lt;div&gt;&lt;div style=&quot;text-align: justify&quot;&gt;&lt;b&gt;wildChild: false&lt;/b&gt;&lt;/div&gt;&lt;/div&gt;" style="rounded=1;whiteSpace=wrap;html=1;align=right;fillColor=#e1d5e7;strokeColor=#9673a6;" vertex="1" parent="1">
          <mxGeometry x="540" y="280" width="110" height="70" as="geometry" />
        </mxCell>
        <mxCell id="QlT1cuGir2ei_2_qyT4M-11" value="" style="endArrow=classic;html=1;exitX=0;exitY=1;exitDx=0;exitDy=0;entryX=0.5;entryY=0;entryDx=0;entryDy=0;" edge="1" parent="1" source="QlT1cuGir2ei_2_qyT4M-1" target="QlT1cuGir2ei_2_qyT4M-2">
          <mxGeometry width="50" height="50" relative="1" as="geometry">
            <mxPoint x="120" y="190" as="sourcePoint" />
            <mxPoint x="170" y="140" as="targetPoint" />
          </mxGeometry>
        </mxCell>
        <mxCell id="QlT1cuGir2ei_2_qyT4M-12" value="" style="endArrow=classic;html=1;exitX=0;exitY=1;exitDx=0;exitDy=0;" edge="1" parent="1">
          <mxGeometry width="50" height="50" relative="1" as="geometry">
            <mxPoint x="440" y="110" as="sourcePoint" />
            <mxPoint x="500" y="160" as="targetPoint" />
          </mxGeometry>
        </mxCell>
        <mxCell id="QlT1cuGir2ei_2_qyT4M-16" value="" style="endArrow=classic;html=1;exitX=0;exitY=1;exitDx=0;exitDy=0;entryX=0.5;entryY=0;entryDx=0;entryDy=0;" edge="1" parent="1" source="QlT1cuGir2ei_2_qyT4M-2">
          <mxGeometry width="50" height="50" relative="1" as="geometry">
            <mxPoint x="140" y="230" as="sourcePoint" />
            <mxPoint x="80" y="280" as="targetPoint" />
          </mxGeometry>
        </mxCell>
        <mxCell id="QlT1cuGir2ei_2_qyT4M-17" value="" style="endArrow=classic;html=1;exitX=0;exitY=1;exitDx=0;exitDy=0;entryX=0.5;entryY=0;entryDx=0;entryDy=0;" edge="1" parent="1">
          <mxGeometry width="50" height="50" relative="1" as="geometry">
            <mxPoint x="260" y="230" as="sourcePoint" />
            <mxPoint x="200" y="280" as="targetPoint" />
          </mxGeometry>
        </mxCell>
        <mxCell id="QlT1cuGir2ei_2_qyT4M-18" value="" style="endArrow=classic;html=1;exitX=0;exitY=1;exitDx=0;exitDy=0;entryX=0.5;entryY=0;entryDx=0;entryDy=0;" edge="1" parent="1" target="QlT1cuGir2ei_2_qyT4M-6">
          <mxGeometry width="50" height="50" relative="1" as="geometry">
            <mxPoint x="300" y="230" as="sourcePoint" />
            <mxPoint x="240" y="280" as="targetPoint" />
          </mxGeometry>
        </mxCell>
        <mxCell id="QlT1cuGir2ei_2_qyT4M-19" value="" style="endArrow=classic;html=1;exitX=0;exitY=1;exitDx=0;exitDy=0;" edge="1" parent="1">
          <mxGeometry width="50" height="50" relative="1" as="geometry">
            <mxPoint x="540" y="230" as="sourcePoint" />
            <mxPoint x="600" y="280" as="targetPoint" />
          </mxGeometry>
        </mxCell>
        <mxCell id="QlT1cuGir2ei_2_qyT4M-20" value="" style="endArrow=classic;html=1;exitX=0;exitY=1;exitDx=0;exitDy=0;entryX=0.5;entryY=0;entryDx=0;entryDy=0;" edge="1" parent="1">
          <mxGeometry width="50" height="50" relative="1" as="geometry">
            <mxPoint x="490" y="230" as="sourcePoint" />
            <mxPoint x="430" y="280" as="targetPoint" />
          </mxGeometry>
        </mxCell>
      </root>
    </mxGraphModel>
  </diagram>
</mxfile>
